PathFileType	4	(X/Y/Z)	Run_300 01
DataRate	CameraRate	NumFrames	NumMarkers	Units	OrigDataRate	OrigDataStartFrame	OrigNumFrames
120	120	4	41	mm	120	34	125
Frame#	Time	LASI			RASI			LPSI			RPSI			RTH1			RTH3			LTH1			LTH2			LTH3			RTB1			RTB2			RTB3			LTB1			LTB2			LTB3			RCAL			RTOE			RMT5			LCAL			LTOE			LMT5			LACR			RACR			CLAV			C7			RUA1			RUA2			RUA3			RLEL			RMEL			LUA1			LUA2			LUA3			LLEL			LMEL			RFAsuperior			RFAradius			RFAulna			LFAsuperior			LFAradius			LFAulna			
		X1	Y1	Z1	X2	Y2	Z2	X3	Y3	Z3	X4	Y4	Z4	X5	Y5	Z5	X6	Y6	Z6	X7	Y7	Z7	X8	Y8	Z8	X9	Y9	Z9	X10	Y10	Z10	X11	Y11	Z11	X12	Y12	Z12	X13	Y13	Z13	X14	Y14	Z14	X15	Y15	Z15	X16	Y16	Z16	X17	Y17	Z17	X18	Y18	Z18	X19	Y19	Z19	X20	Y20	Z20	X21	Y21	Z21	X22	Y22	Z22	X23	Y23	Z23	X24	Y24	Z24	X25	Y25	Z25	X26	Y26	Z26	X27	Y27	Z27	X28	Y28	Z28	X29	Y29	Z29	X30	Y30	Z30	X31	Y31	Z31	X32	Y32	Z32	X33	Y33	Z33	X34	Y34	Z34	X35	Y35	Z35	X36	Y36	Z36	X37	Y37	Z37	X38	Y38	Z38	X39	Y39	Z39	X40	Y40	Z40	X41	Y41	Z41	

34	0.775	911.559837	1067.77934	-408.75198	922.4804350000001	1043.663081	-178.886416	759.739467	1105.706988	-331.550822	763.342049	1104.138238	-235.557072	807.393927	896.8989340000001	-113.708345	688.773059	667.822595	-167.541839	903.990648	889.330215	-459.703045	994.60576	809.023137	-438.470245	973.238846	678.447389	-414.974776	618.346229	438.15842	-236.128843	554.269502	406.913909	-173.517952	543.1266869999999	336.169055	-236.986228	1058.754855	468.075341	-344.596322	1014.684587	396.069921	-419.561123	1037.098693	299.577465	-348.811275	380.910349	273.125346	-239.197742	492.721062	102.159545	-294.546803	464.389414	91.284306	-203.57045	931.624687	153.134938	-352.104892	1137.558126	163.177545	-322.901234	1128.778526	140.180964	-411.334619	848.924435	1533.049783	-466.548911	931.667151	1524.199795	-96.75065499999999	952.053267	1510.643696	-274.82042	826.881512	1568.588516	-282.409822	890.168812	1396.860712	-30.691481	814.669666	1395.607919	-26.973426	858.997338	1327.399868	12.956922	831.401042	1258.957447	34.260187	778.716264	1239.26356	-28.691995	743.577763	1456.84268	-519.492811	669.957759	1445.343656	-494.129104	697.845345	1383.82551	-540.706369	619.3303	1342.081744	-554.902507	596.27143	1347.772274	-471.79318	931.7763220000001	1232.591419	-38.04468	993.535757	1217.548227	-141.898351	1001.305034	1156.224077	-107.336466	705.745412	1245.831524	-541.875543	795.923191	1195.935644	-464.720502	770.015731	1152.911673	-511.457274	
35	0.7833329999999999	912.500597	1068.307279	-408.835604	923.107831	1045.890508	-179.016613	760.521887	1107.973411	-331.839912	764.837743	1107.512668	-235.741441	806.432812	900.902816	-113.27706	688.424641	671.050357	-166.802914	902.230062	888.006182	-458.346197	991.740623	806.019753	-437.980584	969.160726	676.030968	-415.152775	613.258813	442.052478	-235.606709	549.088825	412.652723	-172.354734	534.102007	342.911302	-235.661504	1059.570322	467.228289	-342.695094	1022.709118	392.434681	-418.375184	1049.664825	297.840076	-346.686858	370.859212	286.855328	-236.757954	474.626125	110.823977	-292.665482	444.544098	100.344229	-202.258408	954.810125	144.025666	-351.683117	1158.549737	170.016087	-317.733037	1153.929079	144.927925	-405.776707	847.707736	1534.708926	-466.698306	931.697809	1526.360612	-97.941361	951.695659	1512.263252	-275.640817	826.366759	1569.892813	-282.842602	890.2441669999999	1400.061398	-31.014371	814.759831	1398.637296	-27.624373	858.918168	1331.19102	13.629615	831.336828	1262.066731	34.480135	778.324034	1242.438707	-28.364552	742.082674	1459.452976	-520.03758	668.563038	1448.197789	-493.859882	695.881976	1386.552758	-540.787095	617.049074	1345.201527	-554.550647	594.459069	1350.793907	-471.265179	930.8800199999999	1236.542379	-39.026063	992.029237	1221.521669	-143.362075	1000.021332	1159.989177	-109.276542	703.815659	1249.315422	-542.384355	794.437601	1199.222948	-465.75958	768.5122710000001	1156.333225	-512.594468	
36	0.791667	913.117309	1067.970953	-408.617208	923.32988	1047.603067	-179.10861	760.899805	1109.266353	-332.278364	765.707979	1110.056508	-236.026052	805.74114	904.046688	-113.360954	690.288506	672.033599	-165.984937	899.982755	886.651574	-458.042001	989.712913	802.551179	-438.103059	965.264064	673.074212	-415.287127	609.484568	444.278124	-235.10189	544.844668	417.298467	-171.229012	525.654818	349.159546	-234.744823	1059.717725	466.014727	-340.870806	1028.828409	389.452878	-417.1737	1060.045161	296.63344	-344.69968	360.284877	300.583641	-234.643802	456.582352	120.226423	-290.78179	425.203802	110.623235	-200.814596	975.022643	136.857551	-351.195223	1175.629981	177.033235	-312.800866	1175.042019	150.239058	-400.284726	846.889616	1535.522673	-467.0763	931.401233	1527.658875	-98.913225	951.439876	1513.153819	-276.437402	826.016495	1570.588766	-283.442572	889.968297	1402.131609	-31.358551	814.519185	1400.674939	-28.284551	858.32149	1333.802243	14.114445	830.675541	1264.221395	34.568796	777.422855	1244.814932	-28.264417	740.950211	1461.006682	-520.600958	667.489143	1449.958276	-493.801829	694.325739	1388.243669	-541.044771	615.270582	1347.2518	-554.471342	593.047306	1352.713978	-471.032524	929.361003	1239.452013	-39.89439	990.2528150000001	1223.717237	-144.380249	998.130213	1161.975365	-110.669084	702.361274	1251.743652	-543.134646	793.340139	1201.478719	-466.931747	767.497064	1158.721926	-513.932506	
37	0.8	913.427904	1066.965086	-408.258945	923.249189	1048.864414	-179.142041	760.9528319999999	1109.466118	-332.855259	765.761823	1111.579349	-236.472679	805.5688699999999	906.074897	-113.919213	694.186298	670.753904	-165.076602	896.655197	885.099346	-458.830295	988.312579	798.492033	-438.811047	961.4465259999999	669.670785	-415.378773	606.994218	445.050443	-234.236043	541.195457	421.339774	-170.042056	518.071623	355.040057	-233.885442	1059.355841	464.62692	-339.081298	1033.002812	387.092095	-415.882997	1068.149887	295.893445	-342.803676	349.753432	314.535084	-232.72752	438.967285	130.432163	-288.822704	406.822937	122.064635	-199.135969	991.641782	131.52051	-350.580551	1188.741454	183.377613	-308.094708	1191.821359	155.453588	-395.046436	846.529116	1535.502926	-467.715384	930.848002	1528.102724	-99.69721199999999	951.25062	1513.348869	-277.214059	825.842934	1570.707196	-284.268572	889.3033820000001	1403.049409	-31.757319	813.87147	1401.740278	-29.013721	857.231941	1335.218286	14.345291	829.4048330000001	1265.465043	34.477213	775.963528	1246.39958	-28.388205	740.208875	1461.513977	-521.15608	666.784984	1450.629491	-493.925623	693.20091	1388.940309	-541.499384	614.02917	1348.242371	-554.656069	592.097011	1353.524545	-471.109585	927.339602	1241.012282	-40.586633	988.202072	1224.045297	-145.009122	995.648515	1162.135673	-111.500312	701.393706	1253.08179	-544.060777	792.672955	1202.663891	-468.202993	766.96045	1160.012675	-515.403947	
